<svg height="512" viewBox="0 0 46 60" width="512" xmlns="http://www.w3.org/2000/svg"><g id="Page-1" fill="none" fill-rule="evenodd"><g id="006---Street-Bin" fill-rule="nonzero"><rect id="Rectangle-path" fill="#e8edfc" height="6" rx="1" width="44" x="1" y="14"/><path id="Shape" d="m44 14h-3c.5522847 0 1 .4477153 1 1v4c0 .5522847-.4477153 1-1 1h3c.5522847 0 1-.4477153 1-1v-4c0-.5522847-.4477153-1-1-1z" fill="#cad9fc"/><path id="Shape" d="m42 20-4.552 35.509c-.2560972 1.9961914-1.9554479 3.4912603-3.968 3.491h-20.96c-2.0125521.0002603-3.71190276-1.4948086-3.968-3.491l-4.552-35.509z" fill="#e8edfc"/><path id="Shape" d="m39 20-4.552 35.509c-.2560972 1.9961914-1.9554479 3.4912603-3.968 3.491h3c2.0125521.0002603 3.7119028-1.4948086 3.968-3.491l4.552-35.509z" fill="#cad9fc"/><path id="Shape" d="m4 14 2.463-10.675c.31435906-1.36132699 1.52684839-2.32543017 2.924-2.325h27.226c1.3971516-.00043017 2.6096409.96367301 2.924 2.325l2.463 10.675z" fill="#e8edfc"/><path id="Shape" d="m39.537 3.325c-.3143591-1.36132699-1.5268484-2.32543017-2.924-2.325l-3-.00000014c1.3971516-.00043003 2.6096409.96367315 2.924 2.32500014l2.463 10.675h3z" fill="#cad9fc"/><path id="Shape" d="m37.9 14h-29.8l.92-4h27.96z" fill="#7facfa"/><path id="Shape" d="m36.98 10h-27.96l.8-3.45c.2096287-.9077944 1.0183163-1.55059739 1.95-1.55h22.46c.9316837-.00059739 1.7403713.6422056 1.95 1.55z" fill="#a4c2f7"/><path id="Shape" d="m2 20h2l4.552 35.509c.25609724 1.9961914 1.9554479 3.4912603 3.968 3.491h3c-2.0125521.0002603-3.7119028-1.4948086-3.968-3.491l-4.552-35.509h-2c-.55228475 0-1-.4477153-1-1v-4c0-.5522847.44771525-1 1-1h2l2.463-10.675c.31435906-1.36132699 1.5268484-2.32543017 2.924-2.325h-3c-1.39715161-.00043017-2.60964094.96367301-2.924 2.325l-2.463 10.675h-2c-.55228475 0-1 .4477153-1 1v4c0 .5522847.44771525 1 1 1z" fill="#fff"/><path id="Rectangle-path" d="m7.044 47.541h2v8h-2z" fill="#fff" transform="matrix(.992 -.127 .127 .992 -6.489 1.441)"/><g fill="#428dff"><path id="Shape" d="m8.063 52.541c-.55228475.0024853-1.00201472-.4432153-1.0045-.9955s.44321525-1.0020147.9955-1.0045h.009c.55228475 0 1 .4477153 1 1s-.44771525 1-1 1z"/><path id="Shape" d="m13 50c.0428003.0002947.0855695-.0023783.128-.008.2631058-.0336581.5020603-.1704688.6642841-.3803282s.2344248-.4755725.2007159-.7386718l-3.077-24c-.0701402-.5478665-.5711335-.9351401-1.119-.865-.54786646.0701402-.93514015.5711335-.865 1.119l3.077 24c.0638606.4987695.488159.8725461.991.873z"/><path id="Shape" d="m33 50c.502841-.0004539.9271394-.3742305.991-.873l3.077-24c.0453727-.3544075-.1017753-.7060995-.3860148-.9225972s-.6623877-.2649098-.992-.127c-.3296122.1379098-.5606125.4411897-.6059852.7955972l-3.077 24c-.0337089.2630993.0384921.5288124.2007159.7386718s.4011783.3466701.6642841.3803282c.0424305.0056217.0851997.0082947.128.008z"/><path id="Shape" d="m2 21h1.12l3.423 26.7c.07041631.5478665.57163353.9349163 1.1195.8645s.93491631-.5716335.8645-1.1195l-3.391-26.445h35.727l-4.408 34.383c-.1925998 1.4962698-1.4663854 2.616773-2.975 2.617h-20.96c-1.2142112-.0022862-2.3079843-.7343609-2.773-1.856-.16341453-.4340109-.59997816-.7022856-1.061-.652-.30855135.0412419-.58068316.2228674-.73714659.4919845-.15646344.2691172-.17966698.5954684-.06285341.8840155.76479336 1.8885949 2.5964353 3.126554 4.634 3.132h20.96c2.5135598-.0050446 4.6344638-1.8714743 4.959-4.364l4.441-34.636h1.12c1.1045695 0 2-.8954305 2-2v-4c0-1.1045695-.8954305-2-2-2h-1.2l-2.288-9.9c-.4192574-1.81558881-2.0366326-3.10119477-3.9-3.1h-27.225c-1.86336739-.00119477-3.48074263 1.28441119-3.9 3.1l-2.287 9.9h-1.2c-1.1045695 0-2 .8954305-2 2v4c0 1.1045695.8954305 2 2 2zm5.437-17.45c.20729034-.90926815 1.01740815-1.55320795 1.95-1.55h27.226c.9324786-.0034897 1.7424641.64067524 1.949 1.55l2.181 9.45h-2.053l-1.54-6.674c-.3087742-1.36415228-1.5233478-2.33098938-2.922-2.326h-22.456c-1.3986522-.00498938-2.61322575.96184772-2.922 2.326l-1.54 6.674h-2.053zm2.387 7.45h26.352l.461 2h-27.274zm.461-2 .515-2.225c.1022213-.454275.5063685-.7765117.972-.775h22.456c.4660055-.00198182.870698.32035805.973.775l.514 2.225zm-8.285 6h42v4h-42z"/></g></g></g></svg>