<?xml version="1.0" encoding="iso-8859-1"?>
<!-- Generator: Adobe Illustrator 19.0.0, SVG Export Plug-In . SVG Version: 6.00 Build 0)  -->
<svg version="1.1" id="Capa_1" xmlns="http://www.w3.org/2000/svg" xmlns:xlink="http://www.w3.org/1999/xlink" x="0px" y="0px"
	 viewBox="0 0 512 512" style="enable-background:new 0 0 512 512;" xml:space="preserve">
<rect x="8" y="72" style="fill:#2EA2DB;" width="336" height="432"/>
<g>
	<rect x="40" y="136" style="fill:#FFFFFF;" width="272" height="336"/>
	<polygon style="fill:#FFFFFF;" points="265.6,102.4 86.4,102.4 92,40.8 260,40.8 	"/>
</g>
<g>
	<rect x="78.4" y="384.8" style="fill:#193651;" width="196" height="16"/>
	<rect x="78.4" y="296" style="fill:#193651;" width="196" height="16"/>
	<rect x="78.4" y="207.2" style="fill:#193651;" width="196" height="16"/>
	<rect x="124.8" y="64" style="fill:#193651;" width="16" height="16"/>
	<rect x="168" y="64" style="fill:#193651;" width="16" height="16"/>
	<rect x="211.2" y="64" style="fill:#193651;" width="16" height="16"/>
</g>
<path style="fill:#FFFFFF;" d="M402.4,300.8L402.4,300.8c-56,0-101.6,45.6-101.6,101.6l0,0c0,56,45.6,101.6,101.6,101.6l0,0
	c56,0,101.6-45.6,101.6-101.6l0,0C504,346.4,458.4,300.8,402.4,300.8z"/>
<polygon style="fill:#F16051;" points="380,416.8 370.4,374.4 334.4,386.4 360.8,444 369.6,463.2 381.6,448.8 464.8,346.4 "/>
<g>
	<polygon style="fill:#FFFFFF;" points="402.4,48 308,164.8 302.4,244 378.4,222.4 472.8,105.6 	"/>
	<path style="fill:#FFFFFF;" d="M472.8,105.6l28-34.4c5.6-7.2,4.8-16.8-2.4-22.4L452.8,12c-7.2-5.6-16.8-4.8-22.4,2.4l-28,34.4
		L472.8,105.6z"/>
</g>
<g>
	<path style="fill:#193651;" d="M402.4,292.8c-18.4,0-35.2,4.8-50.4,12v-67.2l30.4-8.8L506.4,76c8-10.4,6.4-25.6-3.2-33.6L457.6,5.6
		c-4-4-9.6-5.6-15.2-5.6C435.2,0,428,3.2,424,8.8l-22.4,28l0,0c0,0-50.4,60.8-48.8,60V64h-82.4l-3.2-31.2H84.8L81.6,64H0v448h352
		v-12c15.2,8,32,12,50.4,12c60,0,109.6-49.6,109.6-109.6C512,341.6,462.4,292.8,402.4,292.8z M373.6,215.2l-62.4,17.6L316,168
		l88-108l57.6,47.2L373.6,215.2z M436,19.2c1.6-2.4,4-3.2,6.4-3.2c1.6,0,3.2,0,4.8,1.6l45.6,36.8c3.2,2.4,4,8,0.8,11.2l-22.4,28
		l-57.6-47.2L436,19.2z M99.2,48.8H252l4.8,45.6H95.2L99.2,48.8z M336,496H16V80h64l-3.2,31.2h197.6L272,80h64v37.6l-36,44.8
		l-6.4,92.8l42.4-12v72c-26.4,20-43.2,52-43.2,87.2c0,36,16.8,67.2,43.2,87.2V496z M402.4,496c-52,0-93.6-42.4-93.6-93.6
		c0-52,42.4-93.6,93.6-93.6c52,0,93.6,42.4,93.6,93.6S453.6,496,402.4,496z"/>
	<polygon style="fill:#193651;" points="339.2,176.8 336,202.4 360,193.6 442.4,91.2 422.4,75.2 	"/>
</g>
<g>
</g>
<g>
</g>
<g>
</g>
<g>
</g>
<g>
</g>
<g>
</g>
<g>
</g>
<g>
</g>
<g>
</g>
<g>
</g>
<g>
</g>
<g>
</g>
<g>
</g>
<g>
</g>
<g>
</g>
</svg>
