<svg height="464pt" viewBox="0 0 464 464" width="464pt" xmlns="http://www.w3.org/2000/svg"><path d="m464 231.890625s-103.871094 136-232 136-232-136-232-136 103.871094-136 232-136 232 136 232 136zm0 0" fill="#c5dddc"/><path d="m464 231.890625s-4.800781-6.238281-13.480469-16c-32.039062 35.9375-117.71875 120-218.519531 120-74.824219 0-141.335938-46.398437-183.753906-84.9375-10.460938-11.511719-16.246094-19.0625-16.246094-19.0625s95.34375-124.726563 216-135.199219c-5.296875-.464844-10.617188-.800781-16-.800781-100.761719 0-186.480469 84.0625-218.519531 120l-.097657.105469c-3.160156 3.550781-13.382812 15.894531-13.382812 15.894531s103.871094 136 232 136c3.078125 0 6.136719-.121094 9.183594-.304687 123.863281-6.222657 222.816406-135.695313 222.816406-135.695313zm0 0" fill="#88d3d1"/><path d="m368 231.890625c0 75.109375-60.890625 136-136 136s-136-60.890625-136-136 60.890625-136 136-136 136 60.890625 136 136zm0 0" fill="#33b1a2"/><path d="m261.800781 157.644531c-35.265625-14.15625-75.621093-1.546875-96.558593 30.164063-20.9375 31.710937-16.675782 73.777344 10.191406 100.648437 26.871094 26.867188 68.9375 31.128907 100.648437 10.191407 31.710938-20.9375 44.320313-61.292969 30.164063-96.558594" fill="#2e9989"/><path d="m312 183.890625c0 17.671875-14.328125 32-32 32s-32-14.328125-32-32 14.328125-32 32-32 32 14.328125 32 32zm0 0" fill="#88d3d1"/><path d="m232 95.890625c69.351562 0 131.558594 39.839844 174.070312 76.398437-25.480468-74.394531-95.429687-124.375-174.070312-124.375s-148.589844 49.980469-174.070312 124.375c42.511718-36.558593 104.71875-76.398437 174.070312-76.398437zm0 0" fill="#ff6283"/><path d="m232 367.890625c-69.351562 0-131.558594-39.839844-174.070312-76.398437 25.480468 74.394531 95.429687 124.375 174.070312 124.375s148.589844-49.980469 174.070312-124.375c-42.511718 36.558593-104.71875 76.398437-174.070312 76.398437zm0 0" fill="#ff6283"/><path d="m224 255.890625c0 8.835937-7.164062 16-16 16s-16-7.164063-16-16 7.164062-16 16-16 16 7.164063 16 16zm0 0" fill="#88d3d1"/><g fill="#ee1442"><path d="m390.398438 81.492188c-2.121094.003906-4.15625-.839844-5.65625-2.34375-84.410157-84.21875-221.058594-84.21875-305.46875 0-3.140626 3.03125-8.128907 2.988281-11.214844-.097657-3.085938-3.085937-3.128906-8.078125-.097656-11.214843 90.664062-90.449219 237.429687-90.449219 328.09375 0 2.289062 2.285156 2.972656 5.726562 1.734374 8.714843-1.238281 2.988281-4.152343 4.9375-7.390624 4.941407zm0 0"/><path d="m232 463.777344c-61.53125.109375-120.566406-24.304688-164.046875-67.839844-3.03125-3.136719-2.988281-8.128906.097656-11.214844 3.085938-3.085937 8.074219-3.128906 11.214844-.097656 84.410156 84.21875 221.058594 84.21875 305.46875 0 3.140625-3.03125 8.128906-2.988281 11.214844.097656 3.085937 3.085938 3.128906 8.078125.097656 11.214844-43.480469 43.535156-102.515625 67.949219-164.046875 67.839844zm0 0"/></g></svg>