<svg height="503pt" viewBox="0 -1 503.15201 503" width="503pt" xmlns="http://www.w3.org/2000/svg"><path d="m503.152344 448.074219h-480v-32h448v-288h32zm0 0" fill="#fdd835"/><g fill="#ff7043"><path d="m64.128906 496.347656-64.128906-63.472656 64.128906-63.472656c6.285156-6.222656 16.414063-6.160156 22.625.128906 6.207032 6.289062 6.15625 16.402344-.113281 22.625l-41.136719 40.71875 41.136719 40.722656c6.269531 6.207032 6.335937 16.335938.113281 22.621094-6.210937 6.289062-16.355468 6.351562-22.625.128906zm0 0"/><path d="m471.152344.0742188h32v32.0000002h-32zm0 0"/><path d="m471.152344 64.074219h32v32h-32zm0 0"/></g></svg>