<svg height="503pt" viewBox="0 0 503.30199 503" width="503pt" xmlns="http://www.w3.org/2000/svg"><path d="m451.148438 347.617188v-295.398438c0-28.757812-23.3125-52.066406-52.070313-52.066406h-269.363281c-18.617188 0-35.820313 9.929687-45.128906 26.054687-9.308594 16.121094-9.308594 35.988281 0 52.109375 9.308593 16.125 26.511718 26.058594 45.128906 26.058594h52.15625v295.308594c-.023438 11.230468 3.601562 22.164062 10.324218 31.15625l1.5625 2.082031c9.878907 12.027344 24.617188 19 40.179688 19.003906h217.210938c28.804687 0 52.152343-23.351562 52.152343-52.15625 0-28.800781-23.347656-52.152343-52.152343-52.152343zm0 0" fill="#d1d4d1"/><path d="m181.871094 52.21875v52.15625h-52.15625c-28.769532-.027344-52.074219-23.359375-52.066406-52.128906.007812-28.765625 23.328124-52.085938 52.097656-52.09375 28.765625-.007813 52.101562 23.296875 52.125 52.066406zm0 0" fill="#95a5a5"/><path d="m503.300781 399.769531c-.023437 28.796875-23.359375 52.132813-52.152343 52.15625h-217.210938c28.804688 0 52.15625-23.351562 52.15625-52.15625 0-28.800781-23.351562-52.152343-52.15625-52.152343h217.210938c28.792968.023437 52.128906 23.359374 52.152343 52.152343zm0 0" fill="#e6e7e8"/><g fill="#35495e"><path d="m416.417969 113.050781h-86.875c-4.792969 0-8.679688-3.882812-8.679688-8.675781s3.886719-8.679688 8.679688-8.679688h86.875c4.792969 0 8.679687 3.886719 8.679687 8.679688s-3.886718 8.675781-8.679687 8.675781zm0 0"/><path d="m416.417969 147.804688h-182.453125c-4.792969 0-8.679688-3.882813-8.679688-8.675782 0-4.792968 3.886719-8.679687 8.679688-8.679687h182.453125c4.792969 0 8.679687 3.886719 8.679687 8.679687 0 4.792969-3.886718 8.675782-8.679687 8.675782zm0 0"/><path d="m416.417969 182.5625h-182.453125c-4.792969 0-8.679688-3.886719-8.679688-8.679688 0-4.792968 3.886719-8.675781 8.679688-8.675781h182.453125c4.792969 0 8.679687 3.882813 8.679687 8.675781 0 4.792969-3.886718 8.679688-8.679687 8.679688zm0 0"/><path d="m416.417969 217.308594h-182.453125c-4.792969 0-8.679688-3.886719-8.679688-8.679688 0-4.792968 3.886719-8.675781 8.679688-8.675781h182.453125c4.792969 0 8.679687 3.882813 8.679687 8.675781 0 4.792969-3.886718 8.679688-8.679687 8.679688zm0 0"/><path d="m416.417969 252.074219h-182.453125c-4.792969 0-8.679688-3.886719-8.679688-8.679688s3.886719-8.679687 8.679688-8.679687h182.453125c4.792969 0 8.679687 3.886718 8.679687 8.679687s-3.886718 8.679688-8.679687 8.679688zm0 0"/><path d="m329.542969 286.785156h-95.578125c-4.792969 0-8.679688-3.886718-8.679688-8.679687s3.886719-8.675781 8.679688-8.675781h95.578125c4.792969 0 8.679687 3.882812 8.679687 8.675781s-3.886718 8.679687-8.679687 8.679687zm0 0"/></g><path d="m194.523438 201.523438h-.054688c-2.191406-1.046876-4.710938-1.175782-7-.363282-2.289062.816406-4.160156 2.507813-5.199219 4.703125l-44.585937 93.285157h-.523438l44.589844-93.285157c1.042969-2.195312 1.175781-4.714843.359375-7.003906-.8125-2.292969-2.503906-4.164063-4.699219-5.207031h-.050781c-3.191406-1.527344-6.980469-1.074219-9.722656 1.164062l-115.925781 94.171875c-1.292969 1.054688-2.339844 2.382813-3.054688 3.886719l-13.617188 28.492188c-.960937 2.003906-1.304687 4.246093-.988281 6.445312l6.714844 46.820312c.316406 2.199219-.023437 4.441407-.980469 6.445313l-8.242187 17.234375 95.300781 45.300781 8.234375-17.234375c.960937-2.007812 2.488281-3.6875 4.398437-4.824218l40.640626-24.1875c1.910156-1.136719 3.4375-2.8125 4.398437-4.816407l13.601563-28.53125c.714843-1.503906 1.09375-3.144531 1.101562-4.808593l.511719-149.433594c0-3.527344-2.027344-6.734375-5.207031-8.253906zm-49.5625 133.761718c-5.171876 10.800782-18.121094 15.363282-28.925782 10.199219-10.800781-5.167969-15.375-18.113281-10.214844-28.921875 5.160157-10.804688 18.101563-15.386719 28.910157-10.234375 5.203125 2.476563 9.203125 6.921875 11.121093 12.355469 1.921876 5.433594 1.601563 11.40625-.890624 16.601562zm0 0" fill="#f0c419"/><path d="m127.460938 458.609375-7.292969 15.359375-108.386719-51.808594 7.378906-15.359375c1.484375-3.117187 4.152344-5.511719 7.410156-6.648437 3.261719-1.140625 6.839844-.933594 9.945313.574218l84.78125 40.527344c3.128906 1.46875 5.542969 4.132813 6.699219 7.390625 1.15625 3.261719.964844 6.847657-.535156 9.964844zm0 0" fill="#894b9d"/><path d="m120.167969 473.96875-10.585938 22.042969c-1.484375 3.117187-4.144531 5.519531-7.402343 6.675781-3.253907 1.15625-6.835938.96875-9.953126-.515625l-84.871093-40.527344c-6.460938-3.164062-9.171875-10.945312-6.074219-17.441406l10.5-22.042969zm0 0" fill="#3d324c"/><path d="m126.824219 452.289062c-1.289063-.007812-2.558594-.304687-3.722657-.867187l-95.300781-45.273437c-2.078125-.988282-3.683593-2.765626-4.453125-4.9375-.769531-2.171876-.644531-4.558594.347656-6.636719l8.238282-17.234375c.222656-.457032.300781-.96875.222656-1.46875l-6.6875-46.859375c-.570312-3.894531.035156-7.871094 1.734375-11.421875l13.617187-28.488282c1.269532-2.664062 3.117188-5.011718 5.40625-6.875l115.960938-94.222656c3.921875-3.179687 9.003906-4.554687 13.992188-3.78125 4.988281.769532 9.414062 3.617188 12.191406 7.832032 3.367187-.414063 6.78125.144531 9.839844 1.613281 6.230468 2.980469 10.199218 9.269531 10.207031 16.175781l-.523438 149.425781c-.019531 2.953125-.683593 5.867188-1.953125 8.53125l-13.613281 28.492188c-1.699219 3.554687-4.417969 6.527343-7.8125 8.539062l-40.613281 24.183594c-.4375.253906-.789063.640625-1.003906 1.101563l-8.238282 17.210937c-1.433594 3.027344-4.484375 4.960937-7.835937 4.960937zm-83.714844-58.082031 79.621094 37.847657 4.503906-9.425782c1.703125-3.550781 4.421875-6.519531 7.808594-8.53125l40.640625-24.191406c.441406-.257812.792968-.640625 1.003906-1.105469l13.625-28.488281c.167969-.347656.253906-.726562.253906-1.109375l.519532-149.417969-1.320313-.589844-.066406.15625.421875.199219-44.613282 93.296875c-1.566406 2.683594-4.375 4.402344-7.480468 4.578125-3.101563.171875-6.085938-1.21875-7.949219-3.710937-1.664063-2.480469-1.945313-5.640625-.746094-8.375l44.582031-93.289063-.773437-.605469-115.957031 94.277344c-.292969.234375-.53125.53125-.703125.867188l-13.613281 28.515625c-.21875.460937-.296876.976562-.226563 1.484375l6.699219 46.808594c.574218 3.898437-.03125 7.878906-1.734375 11.429687zm0 0" fill="#f3d55b"/></svg>